<?xml version="1.0" encoding="utf-8" standalone="no"?>
<!DOCTYPE svg PUBLIC "-//W3C//DTD SVG 1.1//EN"
  "http://www.w3.org/Graphics/SVG/1.1/DTD/svg11.dtd">
<svg xmlns:xlink="http://www.w3.org/1999/xlink" width="936pt" height="432pt" viewBox="0 0 936 432" xmlns="http://www.w3.org/2000/svg" version="1.1">
 <metadata>
  <rdf:RDF xmlns:dc="http://purl.org/dc/elements/1.1/" xmlns:cc="http://creativecommons.org/ns#" xmlns:rdf="http://www.w3.org/1999/02/22-rdf-syntax-ns#">
   <cc:Work>
    <dc:type rdf:resource="http://purl.org/dc/dcmitype/StillImage"/>
    <dc:date>2025-03-10T19:39:23.133965</dc:date>
    <dc:format>image/svg+xml</dc:format>
    <dc:creator>
     <cc:Agent>
      <dc:title>Matplotlib v3.9.2, https://matplotlib.org/</dc:title>
     </cc:Agent>
    </dc:creator>
   </cc:Work>
  </rdf:RDF>
 </metadata>
 <defs>
  <style type="text/css">*{stroke-linejoin: round; stroke-linecap: butt}</style>
 </defs>
 <g id="figure_1">
  <g id="patch_1">
   <path d="M 0 432 
L 936 432 
L 936 0 
L 0 0 
z
" style="fill: #ffffff"/>
  </g>
  <g id="axes_1">
   <g id="patch_2">
    <path d="M 73.66 370.4 
L 923.04 370.4 
L 923.04 18 
L 73.66 18 
z
" style="fill: #ffffff"/>
   </g>
   <g id="patch_3">
    <path d="M 90.6476 3307.066667 
L 135.947867 3307.066667 
L 135.947867 165.866049 
L 90.6476 165.866049 
z
" clip-path="url(#p3a352e2ab4)" style="fill: #3274a1"/>
   </g>
   <g id="patch_4">
    <path d="M 260.5236 3307.066667 
L 305.823867 3307.066667 
L 305.823867 175.502811 
L 260.5236 175.502811 
z
" clip-path="url(#p3a352e2ab4)" style="fill: #3274a1"/>
   </g>
   <g id="patch_5">
    <path d="M 430.3996 3307.066667 
L 475.699867 3307.066667 
L 475.699867 158.108133 
L 430.3996 158.108133 
z
" clip-path="url(#p3a352e2ab4)" style="fill: #3274a1"/>
   </g>
   <g id="patch_6">
    <path d="M 600.2756 3307.066667 
L 645.575867 3307.066667 
L 645.575867 168.92127 
L 600.2756 168.92127 
z
" clip-path="url(#p3a352e2ab4)" style="fill: #3274a1"/>
   </g>
   <g id="patch_7">
    <path d="M 770.1516 3307.066667 
L 815.451867 3307.066667 
L 815.451867 170.065488 
L 770.1516 170.065488 
z
" clip-path="url(#p3a352e2ab4)" style="fill: #3274a1"/>
   </g>
   <g id="patch_8">
    <path d="M 135.947867 3307.066667 
L 181.248133 3307.066667 
L 181.248133 94.605121 
L 135.947867 94.605121 
z
" clip-path="url(#p3a352e2ab4)" style="fill: #e1812c"/>
   </g>
   <g id="patch_9">
    <path d="M 305.823867 3307.066667 
L 351.124133 3307.066667 
L 351.124133 81.391922 
L 305.823867 81.391922 
z
" clip-path="url(#p3a352e2ab4)" style="fill: #e1812c"/>
   </g>
   <g id="patch_10">
    <path d="M 475.699867 3307.066667 
L 521.000133 3307.066667 
L 521.000133 83.456943 
L 475.699867 83.456943 
z
" clip-path="url(#p3a352e2ab4)" style="fill: #e1812c"/>
   </g>
   <g id="patch_11">
    <path d="M 645.575867 3307.066667 
L 690.876133 3307.066667 
L 690.876133 77.008648 
L 645.575867 77.008648 
z
" clip-path="url(#p3a352e2ab4)" style="fill: #e1812c"/>
   </g>
   <g id="patch_12">
    <path d="M 815.451867 3307.066667 
L 860.752133 3307.066667 
L 860.752133 91.773538 
L 815.451867 91.773538 
z
" clip-path="url(#p3a352e2ab4)" style="fill: #e1812c"/>
   </g>
   <g id="patch_13">
    <path d="M 181.248133 3307.066667 
L 226.5484 3307.066667 
L 226.5484 150.220056 
L 181.248133 150.220056 
z
" clip-path="url(#p3a352e2ab4)" style="fill: #3a923a"/>
   </g>
   <g id="patch_14">
    <path d="M 351.124133 3307.066667 
L 396.4244 3307.066667 
L 396.4244 170.484578 
L 351.124133 170.484578 
z
" clip-path="url(#p3a352e2ab4)" style="fill: #3a923a"/>
   </g>
   <g id="patch_15">
    <path d="M 521.000133 3307.066667 
L 566.3004 3307.066667 
L 566.3004 96.212524 
L 521.000133 96.212524 
z
" clip-path="url(#p3a352e2ab4)" style="fill: #3a923a"/>
   </g>
   <g id="patch_16">
    <path d="M 690.876133 3307.066667 
L 736.1764 3307.066667 
L 736.1764 167.270042 
L 690.876133 167.270042 
z
" clip-path="url(#p3a352e2ab4)" style="fill: #3a923a"/>
   </g>
   <g id="patch_17">
    <path d="M 860.752133 3307.066667 
L 906.0524 3307.066667 
L 906.0524 149.144214 
L 860.752133 149.144214 
z
" clip-path="url(#p3a352e2ab4)" style="fill: #3a923a"/>
   </g>
   <g id="patch_18">
    <path d="M 158.598 3307.066667 
L 158.598 3307.066667 
L 158.598 3307.066667 
L 158.598 3307.066667 
z
" clip-path="url(#p3a352e2ab4)" style="fill: #3274a1"/>
   </g>
   <g id="patch_19">
    <path d="M 158.598 3307.066667 
L 158.598 3307.066667 
L 158.598 3307.066667 
L 158.598 3307.066667 
z
" clip-path="url(#p3a352e2ab4)" style="fill: #e1812c"/>
   </g>
   <g id="patch_20">
    <path d="M 158.598 3307.066667 
L 158.598 3307.066667 
L 158.598 3307.066667 
L 158.598 3307.066667 
z
" clip-path="url(#p3a352e2ab4)" style="fill: #3a923a"/>
   </g>
   <g id="matplotlib.axis_1">
    <g id="xtick_1">
     <g id="line2d_1">
      <defs>
       <path id="mb304810453" d="M 0 0 
L 0 3.5 
" style="stroke: #000000; stroke-width: 0.8"/>
      </defs>
      <g>
       <use xlink:href="#mb304810453" x="158.598" y="370.4" style="stroke: #000000; stroke-width: 0.8"/>
      </g>
     </g>
     <g id="text_1">
      <!-- Fixed Window Counter -->
      <g transform="translate(82.159875 386.518125) scale(0.12 -0.12)">
       <defs>
        <path id="DejaVuSans-Bold-46" d="M 588 4666 
L 3834 4666 
L 3834 3756 
L 1791 3756 
L 1791 2888 
L 3713 2888 
L 3713 1978 
L 1791 1978 
L 1791 0 
L 588 0 
L 588 4666 
z
" transform="scale(0.015625)"/>
        <path id="DejaVuSans-Bold-69" d="M 538 3500 
L 1656 3500 
L 1656 0 
L 538 0 
L 538 3500 
z
M 538 4863 
L 1656 4863 
L 1656 3950 
L 538 3950 
L 538 4863 
z
" transform="scale(0.015625)"/>
        <path id="DejaVuSans-Bold-78" d="M 1422 1791 
L 159 3500 
L 1344 3500 
L 2059 2463 
L 2784 3500 
L 3969 3500 
L 2706 1797 
L 4031 0 
L 2847 0 
L 2059 1106 
L 1281 0 
L 97 0 
L 1422 1791 
z
" transform="scale(0.015625)"/>
        <path id="DejaVuSans-Bold-65" d="M 4031 1759 
L 4031 1441 
L 1416 1441 
Q 1456 1047 1700 850 
Q 1944 653 2381 653 
Q 2734 653 3104 758 
Q 3475 863 3866 1075 
L 3866 213 
Q 3469 63 3072 -14 
Q 2675 -91 2278 -91 
Q 1328 -91 801 392 
Q 275 875 275 1747 
Q 275 2603 792 3093 
Q 1309 3584 2216 3584 
Q 3041 3584 3536 3087 
Q 4031 2591 4031 1759 
z
M 2881 2131 
Q 2881 2450 2695 2645 
Q 2509 2841 2209 2841 
Q 1884 2841 1681 2658 
Q 1478 2475 1428 2131 
L 2881 2131 
z
" transform="scale(0.015625)"/>
        <path id="DejaVuSans-Bold-64" d="M 2919 2988 
L 2919 4863 
L 4044 4863 
L 4044 0 
L 2919 0 
L 2919 506 
Q 2688 197 2409 53 
Q 2131 -91 1766 -91 
Q 1119 -91 703 423 
Q 288 938 288 1747 
Q 288 2556 703 3070 
Q 1119 3584 1766 3584 
Q 2128 3584 2408 3439 
Q 2688 3294 2919 2988 
z
M 2181 722 
Q 2541 722 2730 984 
Q 2919 1247 2919 1747 
Q 2919 2247 2730 2509 
Q 2541 2772 2181 2772 
Q 1825 2772 1636 2509 
Q 1447 2247 1447 1747 
Q 1447 1247 1636 984 
Q 1825 722 2181 722 
z
" transform="scale(0.015625)"/>
        <path id="DejaVuSans-Bold-20" transform="scale(0.015625)"/>
        <path id="DejaVuSans-Bold-57" d="M 191 4666 
L 1344 4666 
L 2150 1275 
L 2950 4666 
L 4109 4666 
L 4909 1275 
L 5716 4666 
L 6859 4666 
L 5759 0 
L 4372 0 
L 3525 3547 
L 2688 0 
L 1300 0 
L 191 4666 
z
" transform="scale(0.015625)"/>
        <path id="DejaVuSans-Bold-6e" d="M 4056 2131 
L 4056 0 
L 2931 0 
L 2931 347 
L 2931 1631 
Q 2931 2084 2911 2256 
Q 2891 2428 2841 2509 
Q 2775 2619 2662 2680 
Q 2550 2741 2406 2741 
Q 2056 2741 1856 2470 
Q 1656 2200 1656 1722 
L 1656 0 
L 538 0 
L 538 3500 
L 1656 3500 
L 1656 2988 
Q 1909 3294 2193 3439 
Q 2478 3584 2822 3584 
Q 3428 3584 3742 3212 
Q 4056 2841 4056 2131 
z
" transform="scale(0.015625)"/>
        <path id="DejaVuSans-Bold-6f" d="M 2203 2784 
Q 1831 2784 1636 2517 
Q 1441 2250 1441 1747 
Q 1441 1244 1636 976 
Q 1831 709 2203 709 
Q 2569 709 2762 976 
Q 2956 1244 2956 1747 
Q 2956 2250 2762 2517 
Q 2569 2784 2203 2784 
z
M 2203 3584 
Q 3106 3584 3614 3096 
Q 4122 2609 4122 1747 
Q 4122 884 3614 396 
Q 3106 -91 2203 -91 
Q 1297 -91 786 396 
Q 275 884 275 1747 
Q 275 2609 786 3096 
Q 1297 3584 2203 3584 
z
" transform="scale(0.015625)"/>
        <path id="DejaVuSans-Bold-77" d="M 225 3500 
L 1313 3500 
L 1900 1088 
L 2491 3500 
L 3425 3500 
L 4013 1113 
L 4603 3500 
L 5691 3500 
L 4769 0 
L 3547 0 
L 2956 2406 
L 2369 0 
L 1147 0 
L 225 3500 
z
" transform="scale(0.015625)"/>
        <path id="DejaVuSans-Bold-43" d="M 4288 256 
Q 3956 84 3597 -3 
Q 3238 -91 2847 -91 
Q 1681 -91 1000 561 
Q 319 1213 319 2328 
Q 319 3447 1000 4098 
Q 1681 4750 2847 4750 
Q 3238 4750 3597 4662 
Q 3956 4575 4288 4403 
L 4288 3438 
Q 3953 3666 3628 3772 
Q 3303 3878 2944 3878 
Q 2300 3878 1931 3465 
Q 1563 3053 1563 2328 
Q 1563 1606 1931 1193 
Q 2300 781 2944 781 
Q 3303 781 3628 887 
Q 3953 994 4288 1222 
L 4288 256 
z
" transform="scale(0.015625)"/>
        <path id="DejaVuSans-Bold-75" d="M 500 1363 
L 500 3500 
L 1625 3500 
L 1625 3150 
Q 1625 2866 1622 2436 
Q 1619 2006 1619 1863 
Q 1619 1441 1641 1255 
Q 1663 1069 1716 984 
Q 1784 875 1895 815 
Q 2006 756 2150 756 
Q 2500 756 2700 1025 
Q 2900 1294 2900 1772 
L 2900 3500 
L 4019 3500 
L 4019 0 
L 2900 0 
L 2900 506 
Q 2647 200 2364 54 
Q 2081 -91 1741 -91 
Q 1134 -91 817 281 
Q 500 653 500 1363 
z
" transform="scale(0.015625)"/>
        <path id="DejaVuSans-Bold-74" d="M 1759 4494 
L 1759 3500 
L 2913 3500 
L 2913 2700 
L 1759 2700 
L 1759 1216 
Q 1759 972 1856 886 
Q 1953 800 2241 800 
L 2816 800 
L 2816 0 
L 1856 0 
Q 1194 0 917 276 
Q 641 553 641 1216 
L 641 2700 
L 84 2700 
L 84 3500 
L 641 3500 
L 641 4494 
L 1759 4494 
z
" transform="scale(0.015625)"/>
        <path id="DejaVuSans-Bold-72" d="M 3138 2547 
Q 2991 2616 2845 2648 
Q 2700 2681 2553 2681 
Q 2122 2681 1889 2404 
Q 1656 2128 1656 1613 
L 1656 0 
L 538 0 
L 538 3500 
L 1656 3500 
L 1656 2925 
Q 1872 3269 2151 3426 
Q 2431 3584 2822 3584 
Q 2878 3584 2943 3579 
Q 3009 3575 3134 3559 
L 3138 2547 
z
" transform="scale(0.015625)"/>
       </defs>
       <use xlink:href="#DejaVuSans-Bold-46"/>
       <use xlink:href="#DejaVuSans-Bold-69" x="68.310547"/>
       <use xlink:href="#DejaVuSans-Bold-78" x="102.587891"/>
       <use xlink:href="#DejaVuSans-Bold-65" x="167.089844"/>
       <use xlink:href="#DejaVuSans-Bold-64" x="234.912109"/>
       <use xlink:href="#DejaVuSans-Bold-20" x="306.494141"/>
       <use xlink:href="#DejaVuSans-Bold-57" x="341.308594"/>
       <use xlink:href="#DejaVuSans-Bold-69" x="451.611328"/>
       <use xlink:href="#DejaVuSans-Bold-6e" x="485.888672"/>
       <use xlink:href="#DejaVuSans-Bold-64" x="557.080078"/>
       <use xlink:href="#DejaVuSans-Bold-6f" x="628.662109"/>
       <use xlink:href="#DejaVuSans-Bold-77" x="697.363281"/>
       <use xlink:href="#DejaVuSans-Bold-20" x="789.746094"/>
       <use xlink:href="#DejaVuSans-Bold-43" x="824.560547"/>
       <use xlink:href="#DejaVuSans-Bold-6f" x="897.949219"/>
       <use xlink:href="#DejaVuSans-Bold-75" x="966.650391"/>
       <use xlink:href="#DejaVuSans-Bold-6e" x="1037.841797"/>
       <use xlink:href="#DejaVuSans-Bold-74" x="1109.033203"/>
       <use xlink:href="#DejaVuSans-Bold-65" x="1156.835938"/>
       <use xlink:href="#DejaVuSans-Bold-72" x="1224.658203"/>
      </g>
     </g>
    </g>
    <g id="xtick_2">
     <g id="line2d_2">
      <g>
       <use xlink:href="#mb304810453" x="328.474" y="370.4" style="stroke: #000000; stroke-width: 0.8"/>
      </g>
     </g>
     <g id="text_2">
      <!-- Sliding Window Log -->
      <g transform="translate(261.798063 386.518125) scale(0.12 -0.12)">
       <defs>
        <path id="DejaVuSans-Bold-53" d="M 3834 4519 
L 3834 3531 
Q 3450 3703 3084 3790 
Q 2719 3878 2394 3878 
Q 1963 3878 1756 3759 
Q 1550 3641 1550 3391 
Q 1550 3203 1689 3098 
Q 1828 2994 2194 2919 
L 2706 2816 
Q 3484 2659 3812 2340 
Q 4141 2022 4141 1434 
Q 4141 663 3683 286 
Q 3225 -91 2284 -91 
Q 1841 -91 1394 -6 
Q 947 78 500 244 
L 500 1259 
Q 947 1022 1364 901 
Q 1781 781 2169 781 
Q 2563 781 2772 912 
Q 2981 1044 2981 1288 
Q 2981 1506 2839 1625 
Q 2697 1744 2272 1838 
L 1806 1941 
Q 1106 2091 782 2419 
Q 459 2747 459 3303 
Q 459 4000 909 4375 
Q 1359 4750 2203 4750 
Q 2588 4750 2994 4692 
Q 3400 4634 3834 4519 
z
" transform="scale(0.015625)"/>
        <path id="DejaVuSans-Bold-6c" d="M 538 4863 
L 1656 4863 
L 1656 0 
L 538 0 
L 538 4863 
z
" transform="scale(0.015625)"/>
        <path id="DejaVuSans-Bold-67" d="M 2919 594 
Q 2688 288 2409 144 
Q 2131 0 1766 0 
Q 1125 0 706 504 
Q 288 1009 288 1791 
Q 288 2575 706 3076 
Q 1125 3578 1766 3578 
Q 2131 3578 2409 3434 
Q 2688 3291 2919 2981 
L 2919 3500 
L 4044 3500 
L 4044 353 
Q 4044 -491 3511 -936 
Q 2978 -1381 1966 -1381 
Q 1638 -1381 1331 -1331 
Q 1025 -1281 716 -1178 
L 716 -306 
Q 1009 -475 1290 -558 
Q 1572 -641 1856 -641 
Q 2406 -641 2662 -400 
Q 2919 -159 2919 353 
L 2919 594 
z
M 2181 2772 
Q 1834 2772 1640 2515 
Q 1447 2259 1447 1791 
Q 1447 1309 1634 1061 
Q 1822 813 2181 813 
Q 2531 813 2725 1069 
Q 2919 1325 2919 1791 
Q 2919 2259 2725 2515 
Q 2531 2772 2181 2772 
z
" transform="scale(0.015625)"/>
        <path id="DejaVuSans-Bold-4c" d="M 588 4666 
L 1791 4666 
L 1791 909 
L 3903 909 
L 3903 0 
L 588 0 
L 588 4666 
z
" transform="scale(0.015625)"/>
       </defs>
       <use xlink:href="#DejaVuSans-Bold-53"/>
       <use xlink:href="#DejaVuSans-Bold-6c" x="72.021484"/>
       <use xlink:href="#DejaVuSans-Bold-69" x="106.298828"/>
       <use xlink:href="#DejaVuSans-Bold-64" x="140.576172"/>
       <use xlink:href="#DejaVuSans-Bold-69" x="212.158203"/>
       <use xlink:href="#DejaVuSans-Bold-6e" x="246.435547"/>
       <use xlink:href="#DejaVuSans-Bold-67" x="317.626953"/>
       <use xlink:href="#DejaVuSans-Bold-20" x="389.208984"/>
       <use xlink:href="#DejaVuSans-Bold-57" x="424.023438"/>
       <use xlink:href="#DejaVuSans-Bold-69" x="534.326172"/>
       <use xlink:href="#DejaVuSans-Bold-6e" x="568.603516"/>
       <use xlink:href="#DejaVuSans-Bold-64" x="639.794922"/>
       <use xlink:href="#DejaVuSans-Bold-6f" x="711.376953"/>
       <use xlink:href="#DejaVuSans-Bold-77" x="780.078125"/>
       <use xlink:href="#DejaVuSans-Bold-20" x="872.460938"/>
       <use xlink:href="#DejaVuSans-Bold-4c" x="907.275391"/>
       <use xlink:href="#DejaVuSans-Bold-6f" x="970.996094"/>
       <use xlink:href="#DejaVuSans-Bold-67" x="1039.697266"/>
      </g>
     </g>
    </g>
    <g id="xtick_3">
     <g id="line2d_3">
      <g>
       <use xlink:href="#mb304810453" x="498.35" y="370.4" style="stroke: #000000; stroke-width: 0.8"/>
      </g>
     </g>
     <g id="text_3">
      <!-- Sliding Window Counter -->
      <g transform="translate(416.949688 386.518125) scale(0.12 -0.12)">
       <use xlink:href="#DejaVuSans-Bold-53"/>
       <use xlink:href="#DejaVuSans-Bold-6c" x="72.021484"/>
       <use xlink:href="#DejaVuSans-Bold-69" x="106.298828"/>
       <use xlink:href="#DejaVuSans-Bold-64" x="140.576172"/>
       <use xlink:href="#DejaVuSans-Bold-69" x="212.158203"/>
       <use xlink:href="#DejaVuSans-Bold-6e" x="246.435547"/>
       <use xlink:href="#DejaVuSans-Bold-67" x="317.626953"/>
       <use xlink:href="#DejaVuSans-Bold-20" x="389.208984"/>
       <use xlink:href="#DejaVuSans-Bold-57" x="424.023438"/>
       <use xlink:href="#DejaVuSans-Bold-69" x="534.326172"/>
       <use xlink:href="#DejaVuSans-Bold-6e" x="568.603516"/>
       <use xlink:href="#DejaVuSans-Bold-64" x="639.794922"/>
       <use xlink:href="#DejaVuSans-Bold-6f" x="711.376953"/>
       <use xlink:href="#DejaVuSans-Bold-77" x="780.078125"/>
       <use xlink:href="#DejaVuSans-Bold-20" x="872.460938"/>
       <use xlink:href="#DejaVuSans-Bold-43" x="907.275391"/>
       <use xlink:href="#DejaVuSans-Bold-6f" x="980.664062"/>
       <use xlink:href="#DejaVuSans-Bold-75" x="1049.365234"/>
       <use xlink:href="#DejaVuSans-Bold-6e" x="1120.556641"/>
       <use xlink:href="#DejaVuSans-Bold-74" x="1191.748047"/>
       <use xlink:href="#DejaVuSans-Bold-65" x="1239.550781"/>
       <use xlink:href="#DejaVuSans-Bold-72" x="1307.373047"/>
      </g>
     </g>
    </g>
    <g id="xtick_4">
     <g id="line2d_4">
      <g>
       <use xlink:href="#mb304810453" x="668.226" y="370.4" style="stroke: #000000; stroke-width: 0.8"/>
      </g>
     </g>
     <g id="text_4">
      <!-- Token Bucket -->
      <g transform="translate(623.37225 386.518125) scale(0.12 -0.12)">
       <defs>
        <path id="DejaVuSans-Bold-54" d="M 31 4666 
L 4331 4666 
L 4331 3756 
L 2784 3756 
L 2784 0 
L 1581 0 
L 1581 3756 
L 31 3756 
L 31 4666 
z
" transform="scale(0.015625)"/>
        <path id="DejaVuSans-Bold-6b" d="M 538 4863 
L 1656 4863 
L 1656 2216 
L 2944 3500 
L 4244 3500 
L 2534 1894 
L 4378 0 
L 3022 0 
L 1656 1459 
L 1656 0 
L 538 0 
L 538 4863 
z
" transform="scale(0.015625)"/>
        <path id="DejaVuSans-Bold-42" d="M 2456 2859 
Q 2741 2859 2887 2984 
Q 3034 3109 3034 3353 
Q 3034 3594 2887 3720 
Q 2741 3847 2456 3847 
L 1791 3847 
L 1791 2859 
L 2456 2859 
z
M 2497 819 
Q 2859 819 3042 972 
Q 3225 1125 3225 1434 
Q 3225 1738 3044 1889 
Q 2863 2041 2497 2041 
L 1791 2041 
L 1791 819 
L 2497 819 
z
M 3616 2497 
Q 4003 2384 4215 2081 
Q 4428 1778 4428 1338 
Q 4428 663 3972 331 
Q 3516 0 2584 0 
L 588 0 
L 588 4666 
L 2394 4666 
Q 3366 4666 3802 4372 
Q 4238 4078 4238 3431 
Q 4238 3091 4078 2852 
Q 3919 2613 3616 2497 
z
" transform="scale(0.015625)"/>
        <path id="DejaVuSans-Bold-63" d="M 3366 3391 
L 3366 2478 
Q 3138 2634 2908 2709 
Q 2678 2784 2431 2784 
Q 1963 2784 1702 2511 
Q 1441 2238 1441 1747 
Q 1441 1256 1702 982 
Q 1963 709 2431 709 
Q 2694 709 2930 787 
Q 3166 866 3366 1019 
L 3366 103 
Q 3103 6 2833 -42 
Q 2563 -91 2291 -91 
Q 1344 -91 809 395 
Q 275 881 275 1747 
Q 275 2613 809 3098 
Q 1344 3584 2291 3584 
Q 2566 3584 2833 3536 
Q 3100 3488 3366 3391 
z
" transform="scale(0.015625)"/>
       </defs>
       <use xlink:href="#DejaVuSans-Bold-54"/>
       <use xlink:href="#DejaVuSans-Bold-6f" x="54.962891"/>
       <use xlink:href="#DejaVuSans-Bold-6b" x="123.664062"/>
       <use xlink:href="#DejaVuSans-Bold-65" x="187.542969"/>
       <use xlink:href="#DejaVuSans-Bold-6e" x="255.365234"/>
       <use xlink:href="#DejaVuSans-Bold-20" x="326.556641"/>
       <use xlink:href="#DejaVuSans-Bold-42" x="361.371094"/>
       <use xlink:href="#DejaVuSans-Bold-75" x="437.591797"/>
       <use xlink:href="#DejaVuSans-Bold-63" x="508.783203"/>
       <use xlink:href="#DejaVuSans-Bold-6b" x="568.060547"/>
       <use xlink:href="#DejaVuSans-Bold-65" x="631.939453"/>
       <use xlink:href="#DejaVuSans-Bold-74" x="699.761719"/>
      </g>
     </g>
    </g>
    <g id="xtick_5">
     <g id="line2d_5">
      <g>
       <use xlink:href="#mb304810453" x="838.102" y="370.4" style="stroke: #000000; stroke-width: 0.8"/>
      </g>
     </g>
     <g id="text_5">
      <!-- GCRA -->
      <g transform="translate(819.510437 386.518125) scale(0.12 -0.12)">
       <defs>
        <path id="DejaVuSans-Bold-47" d="M 4781 347 
Q 4331 128 3847 18 
Q 3363 -91 2847 -91 
Q 1681 -91 1000 561 
Q 319 1213 319 2328 
Q 319 3456 1012 4103 
Q 1706 4750 2913 4750 
Q 3378 4750 3804 4662 
Q 4231 4575 4609 4403 
L 4609 3438 
Q 4219 3659 3833 3768 
Q 3447 3878 3059 3878 
Q 2341 3878 1952 3476 
Q 1563 3075 1563 2328 
Q 1563 1588 1938 1184 
Q 2313 781 3003 781 
Q 3191 781 3352 804 
Q 3513 828 3641 878 
L 3641 1784 
L 2906 1784 
L 2906 2591 
L 4781 2591 
L 4781 347 
z
" transform="scale(0.015625)"/>
        <path id="DejaVuSans-Bold-52" d="M 2297 2597 
Q 2675 2597 2839 2737 
Q 3003 2878 3003 3200 
Q 3003 3519 2839 3656 
Q 2675 3794 2297 3794 
L 1791 3794 
L 1791 2597 
L 2297 2597 
z
M 1791 1766 
L 1791 0 
L 588 0 
L 588 4666 
L 2425 4666 
Q 3347 4666 3776 4356 
Q 4206 4047 4206 3378 
Q 4206 2916 3982 2619 
Q 3759 2322 3309 2181 
Q 3556 2125 3751 1926 
Q 3947 1728 4147 1325 
L 4800 0 
L 3519 0 
L 2950 1159 
Q 2778 1509 2601 1637 
Q 2425 1766 2131 1766 
L 1791 1766 
z
" transform="scale(0.015625)"/>
        <path id="DejaVuSans-Bold-41" d="M 3419 850 
L 1538 850 
L 1241 0 
L 31 0 
L 1759 4666 
L 3194 4666 
L 4922 0 
L 3713 0 
L 3419 850 
z
M 1838 1716 
L 3116 1716 
L 2478 3572 
L 1838 1716 
z
" transform="scale(0.015625)"/>
       </defs>
       <use xlink:href="#DejaVuSans-Bold-47"/>
       <use xlink:href="#DejaVuSans-Bold-43" x="82.080078"/>
       <use xlink:href="#DejaVuSans-Bold-52" x="155.46875"/>
       <use xlink:href="#DejaVuSans-Bold-41" x="232.470703"/>
      </g>
     </g>
    </g>
    <g id="text_6">
     <!-- Algorithm -->
     <g transform="translate(459.238594 414.745313) scale(0.14 -0.14)">
      <defs>
       <path id="DejaVuSans-Bold-68" d="M 4056 2131 
L 4056 0 
L 2931 0 
L 2931 347 
L 2931 1625 
Q 2931 2084 2911 2256 
Q 2891 2428 2841 2509 
Q 2775 2619 2662 2680 
Q 2550 2741 2406 2741 
Q 2056 2741 1856 2470 
Q 1656 2200 1656 1722 
L 1656 0 
L 538 0 
L 538 4863 
L 1656 4863 
L 1656 2988 
Q 1909 3294 2193 3439 
Q 2478 3584 2822 3584 
Q 3428 3584 3742 3212 
Q 4056 2841 4056 2131 
z
" transform="scale(0.015625)"/>
       <path id="DejaVuSans-Bold-6d" d="M 3781 2919 
Q 3994 3244 4286 3414 
Q 4578 3584 4928 3584 
Q 5531 3584 5847 3212 
Q 6163 2841 6163 2131 
L 6163 0 
L 5038 0 
L 5038 1825 
Q 5041 1866 5042 1909 
Q 5044 1953 5044 2034 
Q 5044 2406 4934 2573 
Q 4825 2741 4581 2741 
Q 4263 2741 4089 2478 
Q 3916 2216 3909 1719 
L 3909 0 
L 2784 0 
L 2784 1825 
Q 2784 2406 2684 2573 
Q 2584 2741 2328 2741 
Q 2006 2741 1831 2477 
Q 1656 2213 1656 1722 
L 1656 0 
L 531 0 
L 531 3500 
L 1656 3500 
L 1656 2988 
Q 1863 3284 2130 3434 
Q 2397 3584 2719 3584 
Q 3081 3584 3359 3409 
Q 3638 3234 3781 2919 
z
" transform="scale(0.015625)"/>
      </defs>
      <use xlink:href="#DejaVuSans-Bold-41"/>
      <use xlink:href="#DejaVuSans-Bold-6c" x="77.392578"/>
      <use xlink:href="#DejaVuSans-Bold-67" x="111.669922"/>
      <use xlink:href="#DejaVuSans-Bold-6f" x="183.251953"/>
      <use xlink:href="#DejaVuSans-Bold-72" x="251.953125"/>
      <use xlink:href="#DejaVuSans-Bold-69" x="301.269531"/>
      <use xlink:href="#DejaVuSans-Bold-74" x="335.546875"/>
      <use xlink:href="#DejaVuSans-Bold-68" x="383.349609"/>
      <use xlink:href="#DejaVuSans-Bold-6d" x="454.541016"/>
     </g>
    </g>
   </g>
   <g id="matplotlib.axis_2">
    <g id="ytick_1">
     <g id="line2d_6">
      <defs>
       <path id="m38ffc05031" d="M 0 0 
L -3.5 0 
" style="stroke: #000000; stroke-width: 0.8"/>
      </defs>
      <g>
       <use xlink:href="#m38ffc05031" x="73.66" y="370.4" style="stroke: #000000; stroke-width: 0.8"/>
      </g>
     </g>
     <g id="text_7">
      <!-- 250 -->
      <g transform="translate(41.611875 374.959063) scale(0.12 -0.12)">
       <defs>
        <path id="DejaVuSans-Bold-32" d="M 1844 884 
L 3897 884 
L 3897 0 
L 506 0 
L 506 884 
L 2209 2388 
Q 2438 2594 2547 2791 
Q 2656 2988 2656 3200 
Q 2656 3528 2436 3728 
Q 2216 3928 1850 3928 
Q 1569 3928 1234 3808 
Q 900 3688 519 3450 
L 519 4475 
Q 925 4609 1322 4679 
Q 1719 4750 2100 4750 
Q 2938 4750 3402 4381 
Q 3866 4013 3866 3353 
Q 3866 2972 3669 2642 
Q 3472 2313 2841 1759 
L 1844 884 
z
" transform="scale(0.015625)"/>
        <path id="DejaVuSans-Bold-35" d="M 678 4666 
L 3669 4666 
L 3669 3781 
L 1638 3781 
L 1638 3059 
Q 1775 3097 1914 3117 
Q 2053 3138 2203 3138 
Q 3056 3138 3531 2711 
Q 4006 2284 4006 1522 
Q 4006 766 3489 337 
Q 2972 -91 2053 -91 
Q 1656 -91 1267 -14 
Q 878 63 494 219 
L 494 1166 
Q 875 947 1217 837 
Q 1559 728 1863 728 
Q 2300 728 2551 942 
Q 2803 1156 2803 1522 
Q 2803 1891 2551 2103 
Q 2300 2316 1863 2316 
Q 1603 2316 1309 2248 
Q 1016 2181 678 2041 
L 678 4666 
z
" transform="scale(0.015625)"/>
        <path id="DejaVuSans-Bold-30" d="M 2944 2338 
Q 2944 3213 2780 3570 
Q 2616 3928 2228 3928 
Q 1841 3928 1675 3570 
Q 1509 3213 1509 2338 
Q 1509 1453 1675 1090 
Q 1841 728 2228 728 
Q 2613 728 2778 1090 
Q 2944 1453 2944 2338 
z
M 4147 2328 
Q 4147 1169 3647 539 
Q 3147 -91 2228 -91 
Q 1306 -91 806 539 
Q 306 1169 306 2328 
Q 306 3491 806 4120 
Q 1306 4750 2228 4750 
Q 3147 4750 3647 4120 
Q 4147 3491 4147 2328 
z
" transform="scale(0.015625)"/>
       </defs>
       <use xlink:href="#DejaVuSans-Bold-32"/>
       <use xlink:href="#DejaVuSans-Bold-35" x="69.580078"/>
       <use xlink:href="#DejaVuSans-Bold-30" x="139.160156"/>
      </g>
     </g>
    </g>
    <g id="ytick_2">
     <g id="line2d_7">
      <g>
       <use xlink:href="#m38ffc05031" x="73.66" y="311.666667" style="stroke: #000000; stroke-width: 0.8"/>
      </g>
     </g>
     <g id="text_8">
      <!-- 255 -->
      <g transform="translate(41.611875 316.225729) scale(0.12 -0.12)">
       <use xlink:href="#DejaVuSans-Bold-32"/>
       <use xlink:href="#DejaVuSans-Bold-35" x="69.580078"/>
       <use xlink:href="#DejaVuSans-Bold-35" x="139.160156"/>
      </g>
     </g>
    </g>
    <g id="ytick_3">
     <g id="line2d_8">
      <g>
       <use xlink:href="#m38ffc05031" x="73.66" y="252.933333" style="stroke: #000000; stroke-width: 0.8"/>
      </g>
     </g>
     <g id="text_9">
      <!-- 260 -->
      <g transform="translate(41.611875 257.492396) scale(0.12 -0.12)">
       <defs>
        <path id="DejaVuSans-Bold-36" d="M 2316 2303 
Q 2000 2303 1842 2098 
Q 1684 1894 1684 1484 
Q 1684 1075 1842 870 
Q 2000 666 2316 666 
Q 2634 666 2792 870 
Q 2950 1075 2950 1484 
Q 2950 1894 2792 2098 
Q 2634 2303 2316 2303 
z
M 3803 4544 
L 3803 3681 
Q 3506 3822 3243 3889 
Q 2981 3956 2731 3956 
Q 2194 3956 1894 3657 
Q 1594 3359 1544 2772 
Q 1750 2925 1990 3001 
Q 2231 3078 2516 3078 
Q 3231 3078 3670 2659 
Q 4109 2241 4109 1563 
Q 4109 813 3618 361 
Q 3128 -91 2303 -91 
Q 1394 -91 895 523 
Q 397 1138 397 2266 
Q 397 3422 980 4083 
Q 1563 4744 2578 4744 
Q 2900 4744 3203 4694 
Q 3506 4644 3803 4544 
z
" transform="scale(0.015625)"/>
       </defs>
       <use xlink:href="#DejaVuSans-Bold-32"/>
       <use xlink:href="#DejaVuSans-Bold-36" x="69.580078"/>
       <use xlink:href="#DejaVuSans-Bold-30" x="139.160156"/>
      </g>
     </g>
    </g>
    <g id="ytick_4">
     <g id="line2d_9">
      <g>
       <use xlink:href="#m38ffc05031" x="73.66" y="194.2" style="stroke: #000000; stroke-width: 0.8"/>
      </g>
     </g>
     <g id="text_10">
      <!-- 265 -->
      <g transform="translate(41.611875 198.759063) scale(0.12 -0.12)">
       <use xlink:href="#DejaVuSans-Bold-32"/>
       <use xlink:href="#DejaVuSans-Bold-36" x="69.580078"/>
       <use xlink:href="#DejaVuSans-Bold-35" x="139.160156"/>
      </g>
     </g>
    </g>
    <g id="ytick_5">
     <g id="line2d_10">
      <g>
       <use xlink:href="#m38ffc05031" x="73.66" y="135.466667" style="stroke: #000000; stroke-width: 0.8"/>
      </g>
     </g>
     <g id="text_11">
      <!-- 270 -->
      <g transform="translate(41.611875 140.025729) scale(0.12 -0.12)">
       <defs>
        <path id="DejaVuSans-Bold-37" d="M 428 4666 
L 3944 4666 
L 3944 3988 
L 2125 0 
L 953 0 
L 2675 3781 
L 428 3781 
L 428 4666 
z
" transform="scale(0.015625)"/>
       </defs>
       <use xlink:href="#DejaVuSans-Bold-32"/>
       <use xlink:href="#DejaVuSans-Bold-37" x="69.580078"/>
       <use xlink:href="#DejaVuSans-Bold-30" x="139.160156"/>
      </g>
     </g>
    </g>
    <g id="ytick_6">
     <g id="line2d_11">
      <g>
       <use xlink:href="#m38ffc05031" x="73.66" y="76.733333" style="stroke: #000000; stroke-width: 0.8"/>
      </g>
     </g>
     <g id="text_12">
      <!-- 275 -->
      <g transform="translate(41.611875 81.292396) scale(0.12 -0.12)">
       <use xlink:href="#DejaVuSans-Bold-32"/>
       <use xlink:href="#DejaVuSans-Bold-37" x="69.580078"/>
       <use xlink:href="#DejaVuSans-Bold-35" x="139.160156"/>
      </g>
     </g>
    </g>
    <g id="ytick_7">
     <g id="line2d_12">
      <g>
       <use xlink:href="#m38ffc05031" x="73.66" y="18" style="stroke: #000000; stroke-width: 0.8"/>
      </g>
     </g>
     <g id="text_13">
      <!-- 280 -->
      <g transform="translate(41.611875 22.559063) scale(0.12 -0.12)">
       <defs>
        <path id="DejaVuSans-Bold-38" d="M 2228 2088 
Q 1891 2088 1709 1903 
Q 1528 1719 1528 1375 
Q 1528 1031 1709 848 
Q 1891 666 2228 666 
Q 2563 666 2741 848 
Q 2919 1031 2919 1375 
Q 2919 1722 2741 1905 
Q 2563 2088 2228 2088 
z
M 1350 2484 
Q 925 2613 709 2878 
Q 494 3144 494 3541 
Q 494 4131 934 4440 
Q 1375 4750 2228 4750 
Q 3075 4750 3515 4442 
Q 3956 4134 3956 3541 
Q 3956 3144 3739 2878 
Q 3522 2613 3097 2484 
Q 3572 2353 3814 2058 
Q 4056 1763 4056 1313 
Q 4056 619 3595 264 
Q 3134 -91 2228 -91 
Q 1319 -91 855 264 
Q 391 619 391 1313 
Q 391 1763 633 2058 
Q 875 2353 1350 2484 
z
M 1631 3419 
Q 1631 3141 1786 2991 
Q 1941 2841 2228 2841 
Q 2509 2841 2662 2991 
Q 2816 3141 2816 3419 
Q 2816 3697 2662 3845 
Q 2509 3994 2228 3994 
Q 1941 3994 1786 3844 
Q 1631 3694 1631 3419 
z
" transform="scale(0.015625)"/>
       </defs>
       <use xlink:href="#DejaVuSans-Bold-32"/>
       <use xlink:href="#DejaVuSans-Bold-38" x="69.580078"/>
       <use xlink:href="#DejaVuSans-Bold-30" x="139.160156"/>
      </g>
     </g>
    </g>
    <g id="text_14">
     <!-- Latency (ms) -->
     <g transform="translate(23.590937 245.469531) rotate(-90) scale(0.14 -0.14)">
      <defs>
       <path id="DejaVuSans-Bold-61" d="M 2106 1575 
Q 1756 1575 1579 1456 
Q 1403 1338 1403 1106 
Q 1403 894 1545 773 
Q 1688 653 1941 653 
Q 2256 653 2472 879 
Q 2688 1106 2688 1447 
L 2688 1575 
L 2106 1575 
z
M 3816 1997 
L 3816 0 
L 2688 0 
L 2688 519 
Q 2463 200 2181 54 
Q 1900 -91 1497 -91 
Q 953 -91 614 226 
Q 275 544 275 1050 
Q 275 1666 698 1953 
Q 1122 2241 2028 2241 
L 2688 2241 
L 2688 2328 
Q 2688 2594 2478 2717 
Q 2269 2841 1825 2841 
Q 1466 2841 1156 2769 
Q 847 2697 581 2553 
L 581 3406 
Q 941 3494 1303 3539 
Q 1666 3584 2028 3584 
Q 2975 3584 3395 3211 
Q 3816 2838 3816 1997 
z
" transform="scale(0.015625)"/>
       <path id="DejaVuSans-Bold-79" d="M 78 3500 
L 1197 3500 
L 2138 1125 
L 2938 3500 
L 4056 3500 
L 2584 -331 
Q 2363 -916 2067 -1148 
Q 1772 -1381 1288 -1381 
L 641 -1381 
L 641 -647 
L 991 -647 
Q 1275 -647 1404 -556 
Q 1534 -466 1606 -231 
L 1638 -134 
L 78 3500 
z
" transform="scale(0.015625)"/>
       <path id="DejaVuSans-Bold-28" d="M 2413 -844 
L 1484 -844 
Q 1006 -72 778 623 
Q 550 1319 550 2003 
Q 550 2688 779 3389 
Q 1009 4091 1484 4856 
L 2413 4856 
Q 2013 4116 1813 3408 
Q 1613 2700 1613 2009 
Q 1613 1319 1811 609 
Q 2009 -100 2413 -844 
z
" transform="scale(0.015625)"/>
       <path id="DejaVuSans-Bold-73" d="M 3272 3391 
L 3272 2541 
Q 2913 2691 2578 2766 
Q 2244 2841 1947 2841 
Q 1628 2841 1473 2761 
Q 1319 2681 1319 2516 
Q 1319 2381 1436 2309 
Q 1553 2238 1856 2203 
L 2053 2175 
Q 2913 2066 3209 1816 
Q 3506 1566 3506 1031 
Q 3506 472 3093 190 
Q 2681 -91 1863 -91 
Q 1516 -91 1145 -36 
Q 775 19 384 128 
L 384 978 
Q 719 816 1070 734 
Q 1422 653 1784 653 
Q 2113 653 2278 743 
Q 2444 834 2444 1013 
Q 2444 1163 2330 1236 
Q 2216 1309 1875 1350 
L 1678 1375 
Q 931 1469 631 1722 
Q 331 1975 331 2491 
Q 331 3047 712 3315 
Q 1094 3584 1881 3584 
Q 2191 3584 2531 3537 
Q 2872 3491 3272 3391 
z
" transform="scale(0.015625)"/>
       <path id="DejaVuSans-Bold-29" d="M 513 -844 
Q 913 -100 1113 609 
Q 1313 1319 1313 2009 
Q 1313 2700 1113 3408 
Q 913 4116 513 4856 
L 1441 4856 
Q 1916 4091 2145 3389 
Q 2375 2688 2375 2003 
Q 2375 1319 2147 623 
Q 1919 -72 1441 -844 
L 513 -844 
z
" transform="scale(0.015625)"/>
      </defs>
      <use xlink:href="#DejaVuSans-Bold-4c"/>
      <use xlink:href="#DejaVuSans-Bold-61" x="63.720703"/>
      <use xlink:href="#DejaVuSans-Bold-74" x="131.201172"/>
      <use xlink:href="#DejaVuSans-Bold-65" x="179.003906"/>
      <use xlink:href="#DejaVuSans-Bold-6e" x="246.826172"/>
      <use xlink:href="#DejaVuSans-Bold-63" x="318.017578"/>
      <use xlink:href="#DejaVuSans-Bold-79" x="377.294922"/>
      <use xlink:href="#DejaVuSans-Bold-20" x="442.480469"/>
      <use xlink:href="#DejaVuSans-Bold-28" x="477.294922"/>
      <use xlink:href="#DejaVuSans-Bold-6d" x="522.998047"/>
      <use xlink:href="#DejaVuSans-Bold-73" x="627.197266"/>
      <use xlink:href="#DejaVuSans-Bold-29" x="686.71875"/>
     </g>
    </g>
   </g>
   <g id="line2d_13">
    <path clip-path="url(#p3a352e2ab4)" style="fill: none; stroke: #424242; stroke-width: 2.25; stroke-linecap: square"/>
   </g>
   <g id="line2d_14">
    <path clip-path="url(#p3a352e2ab4)" style="fill: none; stroke: #424242; stroke-width: 2.25; stroke-linecap: square"/>
   </g>
   <g id="line2d_15">
    <path clip-path="url(#p3a352e2ab4)" style="fill: none; stroke: #424242; stroke-width: 2.25; stroke-linecap: square"/>
   </g>
   <g id="line2d_16">
    <path clip-path="url(#p3a352e2ab4)" style="fill: none; stroke: #424242; stroke-width: 2.25; stroke-linecap: square"/>
   </g>
   <g id="line2d_17">
    <path clip-path="url(#p3a352e2ab4)" style="fill: none; stroke: #424242; stroke-width: 2.25; stroke-linecap: square"/>
   </g>
   <g id="line2d_18">
    <path clip-path="url(#p3a352e2ab4)" style="fill: none; stroke: #424242; stroke-width: 2.25; stroke-linecap: square"/>
   </g>
   <g id="line2d_19">
    <path clip-path="url(#p3a352e2ab4)" style="fill: none; stroke: #424242; stroke-width: 2.25; stroke-linecap: square"/>
   </g>
   <g id="line2d_20">
    <path clip-path="url(#p3a352e2ab4)" style="fill: none; stroke: #424242; stroke-width: 2.25; stroke-linecap: square"/>
   </g>
   <g id="line2d_21">
    <path clip-path="url(#p3a352e2ab4)" style="fill: none; stroke: #424242; stroke-width: 2.25; stroke-linecap: square"/>
   </g>
   <g id="line2d_22">
    <path clip-path="url(#p3a352e2ab4)" style="fill: none; stroke: #424242; stroke-width: 2.25; stroke-linecap: square"/>
   </g>
   <g id="line2d_23">
    <path clip-path="url(#p3a352e2ab4)" style="fill: none; stroke: #424242; stroke-width: 2.25; stroke-linecap: square"/>
   </g>
   <g id="line2d_24">
    <path clip-path="url(#p3a352e2ab4)" style="fill: none; stroke: #424242; stroke-width: 2.25; stroke-linecap: square"/>
   </g>
   <g id="line2d_25">
    <path clip-path="url(#p3a352e2ab4)" style="fill: none; stroke: #424242; stroke-width: 2.25; stroke-linecap: square"/>
   </g>
   <g id="line2d_26">
    <path clip-path="url(#p3a352e2ab4)" style="fill: none; stroke: #424242; stroke-width: 2.25; stroke-linecap: square"/>
   </g>
   <g id="line2d_27">
    <path clip-path="url(#p3a352e2ab4)" style="fill: none; stroke: #424242; stroke-width: 2.25; stroke-linecap: square"/>
   </g>
   <g id="line2d_28">
    <path d="M 73.66 182.737389 
L 923.04 182.737389 
" clip-path="url(#p3a352e2ab4)" style="fill: none; stroke-dasharray: 5.55,2.4; stroke-dashoffset: 0; stroke: #ff0000; stroke-width: 1.5"/>
   </g>
   <g id="patch_21">
    <path d="M 73.66 370.4 
L 73.66 18 
" style="fill: none; stroke: #000000; stroke-width: 0.8; stroke-linejoin: miter; stroke-linecap: square"/>
   </g>
   <g id="patch_22">
    <path d="M 923.04 370.4 
L 923.04 18 
" style="fill: none; stroke: #000000; stroke-width: 0.8; stroke-linejoin: miter; stroke-linecap: square"/>
   </g>
   <g id="patch_23">
    <path d="M 73.66 370.4 
L 923.04 370.4 
" style="fill: none; stroke: #000000; stroke-width: 0.8; stroke-linejoin: miter; stroke-linecap: square"/>
   </g>
   <g id="patch_24">
    <path d="M 73.66 18 
L 923.04 18 
" style="fill: none; stroke: #000000; stroke-width: 0.8; stroke-linejoin: miter; stroke-linecap: square"/>
   </g>
   <g id="text_15">
    <!-- 267.41 -->
    <g transform="translate(90.145233 160.177299) scale(0.12 -0.12)">
     <defs>
      <path id="DejaVuSans-Bold-2e" d="M 653 1209 
L 1778 1209 
L 1778 0 
L 653 0 
L 653 1209 
z
" transform="scale(0.015625)"/>
      <path id="DejaVuSans-Bold-34" d="M 2356 3675 
L 1038 1722 
L 2356 1722 
L 2356 3675 
z
M 2156 4666 
L 3494 4666 
L 3494 1722 
L 4159 1722 
L 4159 850 
L 3494 850 
L 3494 0 
L 2356 0 
L 2356 850 
L 288 850 
L 288 1881 
L 2156 4666 
z
" transform="scale(0.015625)"/>
      <path id="DejaVuSans-Bold-31" d="M 750 831 
L 1813 831 
L 1813 3847 
L 722 3622 
L 722 4441 
L 1806 4666 
L 2950 4666 
L 2950 831 
L 4013 831 
L 4013 0 
L 750 0 
L 750 831 
z
" transform="scale(0.015625)"/>
     </defs>
     <use xlink:href="#DejaVuSans-Bold-32"/>
     <use xlink:href="#DejaVuSans-Bold-36" x="69.580078"/>
     <use xlink:href="#DejaVuSans-Bold-37" x="139.160156"/>
     <use xlink:href="#DejaVuSans-Bold-2e" x="208.740234"/>
     <use xlink:href="#DejaVuSans-Bold-34" x="246.728516"/>
     <use xlink:href="#DejaVuSans-Bold-31" x="316.308594"/>
    </g>
   </g>
   <g id="text_16">
    <!-- 266.59 -->
    <g transform="translate(260.021233 169.814061) scale(0.12 -0.12)">
     <defs>
      <path id="DejaVuSans-Bold-39" d="M 641 103 
L 641 966 
Q 928 831 1190 764 
Q 1453 697 1709 697 
Q 2247 697 2547 995 
Q 2847 1294 2900 1881 
Q 2688 1725 2447 1647 
Q 2206 1569 1925 1569 
Q 1209 1569 770 1986 
Q 331 2403 331 3084 
Q 331 3838 820 4291 
Q 1309 4744 2131 4744 
Q 3044 4744 3544 4128 
Q 4044 3513 4044 2388 
Q 4044 1231 3459 570 
Q 2875 -91 1856 -91 
Q 1528 -91 1228 -42 
Q 928 6 641 103 
z
M 2125 2350 
Q 2441 2350 2600 2554 
Q 2759 2759 2759 3169 
Q 2759 3575 2600 3781 
Q 2441 3988 2125 3988 
Q 1809 3988 1650 3781 
Q 1491 3575 1491 3169 
Q 1491 2759 1650 2554 
Q 1809 2350 2125 2350 
z
" transform="scale(0.015625)"/>
     </defs>
     <use xlink:href="#DejaVuSans-Bold-32"/>
     <use xlink:href="#DejaVuSans-Bold-36" x="69.580078"/>
     <use xlink:href="#DejaVuSans-Bold-36" x="139.160156"/>
     <use xlink:href="#DejaVuSans-Bold-2e" x="208.740234"/>
     <use xlink:href="#DejaVuSans-Bold-35" x="246.728516"/>
     <use xlink:href="#DejaVuSans-Bold-39" x="316.308594"/>
    </g>
   </g>
   <g id="text_17">
    <!-- 268.07 -->
    <g transform="translate(429.897233 152.419383) scale(0.12 -0.12)">
     <use xlink:href="#DejaVuSans-Bold-32"/>
     <use xlink:href="#DejaVuSans-Bold-36" x="69.580078"/>
     <use xlink:href="#DejaVuSans-Bold-38" x="139.160156"/>
     <use xlink:href="#DejaVuSans-Bold-2e" x="208.740234"/>
     <use xlink:href="#DejaVuSans-Bold-30" x="246.728516"/>
     <use xlink:href="#DejaVuSans-Bold-37" x="316.308594"/>
    </g>
   </g>
   <g id="text_18">
    <!-- 267.15 -->
    <g transform="translate(599.773233 163.23252) scale(0.12 -0.12)">
     <use xlink:href="#DejaVuSans-Bold-32"/>
     <use xlink:href="#DejaVuSans-Bold-36" x="69.580078"/>
     <use xlink:href="#DejaVuSans-Bold-37" x="139.160156"/>
     <use xlink:href="#DejaVuSans-Bold-2e" x="208.740234"/>
     <use xlink:href="#DejaVuSans-Bold-31" x="246.728516"/>
     <use xlink:href="#DejaVuSans-Bold-35" x="316.308594"/>
    </g>
   </g>
   <g id="text_19">
    <!-- 267.05 -->
    <g transform="translate(769.649233 164.376738) scale(0.12 -0.12)">
     <use xlink:href="#DejaVuSans-Bold-32"/>
     <use xlink:href="#DejaVuSans-Bold-36" x="69.580078"/>
     <use xlink:href="#DejaVuSans-Bold-37" x="139.160156"/>
     <use xlink:href="#DejaVuSans-Bold-2e" x="208.740234"/>
     <use xlink:href="#DejaVuSans-Bold-30" x="246.728516"/>
     <use xlink:href="#DejaVuSans-Bold-35" x="316.308594"/>
    </g>
   </g>
   <g id="text_20">
    <!-- 273.48 -->
    <g transform="translate(135.4455 88.916371) scale(0.12 -0.12)">
     <defs>
      <path id="DejaVuSans-Bold-33" d="M 2981 2516 
Q 3453 2394 3698 2092 
Q 3944 1791 3944 1325 
Q 3944 631 3412 270 
Q 2881 -91 1863 -91 
Q 1503 -91 1142 -33 
Q 781 25 428 141 
L 428 1069 
Q 766 900 1098 814 
Q 1431 728 1753 728 
Q 2231 728 2486 893 
Q 2741 1059 2741 1369 
Q 2741 1688 2480 1852 
Q 2219 2016 1709 2016 
L 1228 2016 
L 1228 2791 
L 1734 2791 
Q 2188 2791 2409 2933 
Q 2631 3075 2631 3366 
Q 2631 3634 2415 3781 
Q 2200 3928 1806 3928 
Q 1516 3928 1219 3862 
Q 922 3797 628 3669 
L 628 4550 
Q 984 4650 1334 4700 
Q 1684 4750 2022 4750 
Q 2931 4750 3382 4451 
Q 3834 4153 3834 3553 
Q 3834 3144 3618 2883 
Q 3403 2622 2981 2516 
z
" transform="scale(0.015625)"/>
     </defs>
     <use xlink:href="#DejaVuSans-Bold-32"/>
     <use xlink:href="#DejaVuSans-Bold-37" x="69.580078"/>
     <use xlink:href="#DejaVuSans-Bold-33" x="139.160156"/>
     <use xlink:href="#DejaVuSans-Bold-2e" x="208.740234"/>
     <use xlink:href="#DejaVuSans-Bold-34" x="246.728516"/>
     <use xlink:href="#DejaVuSans-Bold-38" x="316.308594"/>
    </g>
   </g>
   <g id="text_21">
    <!-- 274.60 -->
    <g transform="translate(305.3215 75.703172) scale(0.12 -0.12)">
     <use xlink:href="#DejaVuSans-Bold-32"/>
     <use xlink:href="#DejaVuSans-Bold-37" x="69.580078"/>
     <use xlink:href="#DejaVuSans-Bold-34" x="139.160156"/>
     <use xlink:href="#DejaVuSans-Bold-2e" x="208.740234"/>
     <use xlink:href="#DejaVuSans-Bold-36" x="246.728516"/>
     <use xlink:href="#DejaVuSans-Bold-30" x="316.308594"/>
    </g>
   </g>
   <g id="text_22">
    <!-- 274.43 -->
    <g transform="translate(475.1975 77.768193) scale(0.12 -0.12)">
     <use xlink:href="#DejaVuSans-Bold-32"/>
     <use xlink:href="#DejaVuSans-Bold-37" x="69.580078"/>
     <use xlink:href="#DejaVuSans-Bold-34" x="139.160156"/>
     <use xlink:href="#DejaVuSans-Bold-2e" x="208.740234"/>
     <use xlink:href="#DejaVuSans-Bold-34" x="246.728516"/>
     <use xlink:href="#DejaVuSans-Bold-33" x="316.308594"/>
    </g>
   </g>
   <g id="text_23">
    <!-- 274.98 -->
    <g transform="translate(645.0735 71.319898) scale(0.12 -0.12)">
     <use xlink:href="#DejaVuSans-Bold-32"/>
     <use xlink:href="#DejaVuSans-Bold-37" x="69.580078"/>
     <use xlink:href="#DejaVuSans-Bold-34" x="139.160156"/>
     <use xlink:href="#DejaVuSans-Bold-2e" x="208.740234"/>
     <use xlink:href="#DejaVuSans-Bold-39" x="246.728516"/>
     <use xlink:href="#DejaVuSans-Bold-38" x="316.308594"/>
    </g>
   </g>
   <g id="text_24">
    <!-- 273.72 -->
    <g transform="translate(814.9495 86.084788) scale(0.12 -0.12)">
     <use xlink:href="#DejaVuSans-Bold-32"/>
     <use xlink:href="#DejaVuSans-Bold-37" x="69.580078"/>
     <use xlink:href="#DejaVuSans-Bold-33" x="139.160156"/>
     <use xlink:href="#DejaVuSans-Bold-2e" x="208.740234"/>
     <use xlink:href="#DejaVuSans-Bold-37" x="246.728516"/>
     <use xlink:href="#DejaVuSans-Bold-32" x="316.308594"/>
    </g>
   </g>
   <g id="text_25">
    <!-- 268.74 -->
    <g transform="translate(180.745767 144.531306) scale(0.12 -0.12)">
     <use xlink:href="#DejaVuSans-Bold-32"/>
     <use xlink:href="#DejaVuSans-Bold-36" x="69.580078"/>
     <use xlink:href="#DejaVuSans-Bold-38" x="139.160156"/>
     <use xlink:href="#DejaVuSans-Bold-2e" x="208.740234"/>
     <use xlink:href="#DejaVuSans-Bold-37" x="246.728516"/>
     <use xlink:href="#DejaVuSans-Bold-34" x="316.308594"/>
    </g>
   </g>
   <g id="text_26">
    <!-- 267.02 -->
    <g transform="translate(350.621767 164.795828) scale(0.12 -0.12)">
     <use xlink:href="#DejaVuSans-Bold-32"/>
     <use xlink:href="#DejaVuSans-Bold-36" x="69.580078"/>
     <use xlink:href="#DejaVuSans-Bold-37" x="139.160156"/>
     <use xlink:href="#DejaVuSans-Bold-2e" x="208.740234"/>
     <use xlink:href="#DejaVuSans-Bold-30" x="246.728516"/>
     <use xlink:href="#DejaVuSans-Bold-32" x="316.308594"/>
    </g>
   </g>
   <g id="text_27">
    <!-- 273.34 -->
    <g transform="translate(520.497767 90.523774) scale(0.12 -0.12)">
     <use xlink:href="#DejaVuSans-Bold-32"/>
     <use xlink:href="#DejaVuSans-Bold-37" x="69.580078"/>
     <use xlink:href="#DejaVuSans-Bold-33" x="139.160156"/>
     <use xlink:href="#DejaVuSans-Bold-2e" x="208.740234"/>
     <use xlink:href="#DejaVuSans-Bold-33" x="246.728516"/>
     <use xlink:href="#DejaVuSans-Bold-34" x="316.308594"/>
    </g>
   </g>
   <g id="text_28">
    <!-- 267.29 -->
    <g transform="translate(690.373767 161.581292) scale(0.12 -0.12)">
     <use xlink:href="#DejaVuSans-Bold-32"/>
     <use xlink:href="#DejaVuSans-Bold-36" x="69.580078"/>
     <use xlink:href="#DejaVuSans-Bold-37" x="139.160156"/>
     <use xlink:href="#DejaVuSans-Bold-2e" x="208.740234"/>
     <use xlink:href="#DejaVuSans-Bold-32" x="246.728516"/>
     <use xlink:href="#DejaVuSans-Bold-39" x="316.308594"/>
    </g>
   </g>
   <g id="text_29">
    <!-- 268.84 -->
    <g transform="translate(860.249767 143.455464) scale(0.12 -0.12)">
     <use xlink:href="#DejaVuSans-Bold-32"/>
     <use xlink:href="#DejaVuSans-Bold-36" x="69.580078"/>
     <use xlink:href="#DejaVuSans-Bold-38" x="139.160156"/>
     <use xlink:href="#DejaVuSans-Bold-2e" x="208.740234"/>
     <use xlink:href="#DejaVuSans-Bold-38" x="246.728516"/>
     <use xlink:href="#DejaVuSans-Bold-34" x="316.308594"/>
    </g>
   </g>
   <g id="legend_1">
    <g id="patch_25">
     <path d="M 649.674375 364.4 
L 914.64 364.4 
Q 917.04 364.4 917.04 362 
L 917.04 274.94375 
Q 917.04 272.54375 914.64 272.54375 
L 649.674375 272.54375 
Q 647.274375 272.54375 647.274375 274.94375 
L 647.274375 362 
Q 647.274375 364.4 649.674375 364.4 
z
" style="fill: #ffffff; opacity: 0.8; stroke: #cccccc; stroke-linejoin: miter"/>
    </g>
    <g id="text_30">
     <!-- Data Stores -->
     <g transform="translate(742.21125 286.461875) scale(0.12 -0.12)">
      <defs>
       <path id="DejaVuSans-Bold-44" d="M 1791 3756 
L 1791 909 
L 2222 909 
Q 2959 909 3348 1275 
Q 3738 1641 3738 2338 
Q 3738 3031 3350 3393 
Q 2963 3756 2222 3756 
L 1791 3756 
z
M 588 4666 
L 1856 4666 
Q 2919 4666 3439 4514 
Q 3959 4363 4331 4000 
Q 4659 3684 4818 3271 
Q 4978 2859 4978 2338 
Q 4978 1809 4818 1395 
Q 4659 981 4331 666 
Q 3956 303 3431 151 
Q 2906 0 1856 0 
L 588 0 
L 588 4666 
z
" transform="scale(0.015625)"/>
      </defs>
      <use xlink:href="#DejaVuSans-Bold-44"/>
      <use xlink:href="#DejaVuSans-Bold-61" x="83.007812"/>
      <use xlink:href="#DejaVuSans-Bold-74" x="150.488281"/>
      <use xlink:href="#DejaVuSans-Bold-61" x="198.291016"/>
      <use xlink:href="#DejaVuSans-Bold-20" x="265.771484"/>
      <use xlink:href="#DejaVuSans-Bold-53" x="300.585938"/>
      <use xlink:href="#DejaVuSans-Bold-74" x="372.607422"/>
      <use xlink:href="#DejaVuSans-Bold-6f" x="420.410156"/>
      <use xlink:href="#DejaVuSans-Bold-72" x="489.111328"/>
      <use xlink:href="#DejaVuSans-Bold-65" x="538.427734"/>
      <use xlink:href="#DejaVuSans-Bold-73" x="606.25"/>
     </g>
    </g>
    <g id="patch_26">
     <path d="M 652.074375 304.075625 
L 676.074375 304.075625 
L 676.074375 295.675625 
L 652.074375 295.675625 
z
" style="fill: #3274a1"/>
    </g>
    <g id="text_31">
     <!-- CRDT -->
     <g transform="translate(685.674375 304.075625) scale(0.12 -0.12)">
      <use xlink:href="#DejaVuSans-Bold-43"/>
      <use xlink:href="#DejaVuSans-Bold-52" x="73.388672"/>
      <use xlink:href="#DejaVuSans-Bold-44" x="150.390625"/>
      <use xlink:href="#DejaVuSans-Bold-54" x="233.398438"/>
     </g>
    </g>
    <g id="patch_27">
     <path d="M 652.074375 321.689375 
L 676.074375 321.689375 
L 676.074375 313.289375 
L 652.074375 313.289375 
z
" style="fill: #e1812c"/>
    </g>
    <g id="text_32">
     <!-- MySQL -->
     <g transform="translate(685.674375 321.689375) scale(0.12 -0.12)">
      <defs>
       <path id="DejaVuSans-Bold-4d" d="M 588 4666 
L 2119 4666 
L 3181 2169 
L 4250 4666 
L 5778 4666 
L 5778 0 
L 4641 0 
L 4641 3413 
L 3566 897 
L 2803 897 
L 1728 3413 
L 1728 0 
L 588 0 
L 588 4666 
z
" transform="scale(0.015625)"/>
       <path id="DejaVuSans-Bold-51" d="M 2847 -84 
L 2753 -84 
Q 1600 -84 959 553 
Q 319 1191 319 2328 
Q 319 3463 958 4106 
Q 1597 4750 2719 4750 
Q 3853 4750 4486 4112 
Q 5119 3475 5119 2328 
Q 5119 1541 4783 972 
Q 4447 403 3816 116 
L 4756 -934 
L 3609 -934 
L 2847 -84 
z
M 2719 3878 
Q 2169 3878 1866 3472 
Q 1563 3066 1563 2328 
Q 1563 1578 1859 1179 
Q 2156 781 2719 781 
Q 3272 781 3575 1187 
Q 3878 1594 3878 2328 
Q 3878 3066 3575 3472 
Q 3272 3878 2719 3878 
z
" transform="scale(0.015625)"/>
      </defs>
      <use xlink:href="#DejaVuSans-Bold-4d"/>
      <use xlink:href="#DejaVuSans-Bold-79" x="99.511719"/>
      <use xlink:href="#DejaVuSans-Bold-53" x="164.697266"/>
      <use xlink:href="#DejaVuSans-Bold-51" x="236.71875"/>
      <use xlink:href="#DejaVuSans-Bold-4c" x="321.728516"/>
     </g>
    </g>
    <g id="patch_28">
     <path d="M 652.074375 339.396875 
L 676.074375 339.396875 
L 676.074375 330.996875 
L 652.074375 330.996875 
z
" style="fill: #3a923a"/>
    </g>
    <g id="text_33">
     <!-- Redis -->
     <g transform="translate(685.674375 339.396875) scale(0.12 -0.12)">
      <use xlink:href="#DejaVuSans-Bold-52"/>
      <use xlink:href="#DejaVuSans-Bold-65" x="77.001953"/>
      <use xlink:href="#DejaVuSans-Bold-64" x="144.824219"/>
      <use xlink:href="#DejaVuSans-Bold-69" x="216.40625"/>
      <use xlink:href="#DejaVuSans-Bold-73" x="250.683594"/>
     </g>
    </g>
    <g id="line2d_29">
     <path d="M 652.074375 352.810625 
L 664.074375 352.810625 
L 676.074375 352.810625 
" style="fill: none; stroke-dasharray: 5.55,2.4; stroke-dashoffset: 0; stroke: #ff0000; stroke-width: 1.5"/>
    </g>
    <g id="text_34">
     <!-- No Throttling Latency: 265.98 ms -->
     <g transform="translate(685.674375 357.010625) scale(0.12 -0.12)">
      <defs>
       <path id="DejaVuSans-Bold-4e" d="M 588 4666 
L 1931 4666 
L 3628 1466 
L 3628 4666 
L 4769 4666 
L 4769 0 
L 3425 0 
L 1728 3200 
L 1728 0 
L 588 0 
L 588 4666 
z
" transform="scale(0.015625)"/>
       <path id="DejaVuSans-Bold-3a" d="M 716 3500 
L 1844 3500 
L 1844 2291 
L 716 2291 
L 716 3500 
z
M 716 1209 
L 1844 1209 
L 1844 0 
L 716 0 
L 716 1209 
z
" transform="scale(0.015625)"/>
      </defs>
      <use xlink:href="#DejaVuSans-Bold-4e"/>
      <use xlink:href="#DejaVuSans-Bold-6f" x="83.691406"/>
      <use xlink:href="#DejaVuSans-Bold-20" x="152.392578"/>
      <use xlink:href="#DejaVuSans-Bold-54" x="187.207031"/>
      <use xlink:href="#DejaVuSans-Bold-68" x="255.419922"/>
      <use xlink:href="#DejaVuSans-Bold-72" x="326.611328"/>
      <use xlink:href="#DejaVuSans-Bold-6f" x="375.927734"/>
      <use xlink:href="#DejaVuSans-Bold-74" x="444.628906"/>
      <use xlink:href="#DejaVuSans-Bold-74" x="492.431641"/>
      <use xlink:href="#DejaVuSans-Bold-6c" x="540.234375"/>
      <use xlink:href="#DejaVuSans-Bold-69" x="574.511719"/>
      <use xlink:href="#DejaVuSans-Bold-6e" x="608.789062"/>
      <use xlink:href="#DejaVuSans-Bold-67" x="679.980469"/>
      <use xlink:href="#DejaVuSans-Bold-20" x="751.5625"/>
      <use xlink:href="#DejaVuSans-Bold-4c" x="786.376953"/>
      <use xlink:href="#DejaVuSans-Bold-61" x="850.097656"/>
      <use xlink:href="#DejaVuSans-Bold-74" x="917.578125"/>
      <use xlink:href="#DejaVuSans-Bold-65" x="965.380859"/>
      <use xlink:href="#DejaVuSans-Bold-6e" x="1033.203125"/>
      <use xlink:href="#DejaVuSans-Bold-63" x="1104.394531"/>
      <use xlink:href="#DejaVuSans-Bold-79" x="1163.671875"/>
      <use xlink:href="#DejaVuSans-Bold-3a" x="1228.857422"/>
      <use xlink:href="#DejaVuSans-Bold-20" x="1268.847656"/>
      <use xlink:href="#DejaVuSans-Bold-32" x="1303.662109"/>
      <use xlink:href="#DejaVuSans-Bold-36" x="1373.242188"/>
      <use xlink:href="#DejaVuSans-Bold-35" x="1442.822266"/>
      <use xlink:href="#DejaVuSans-Bold-2e" x="1512.402344"/>
      <use xlink:href="#DejaVuSans-Bold-39" x="1550.390625"/>
      <use xlink:href="#DejaVuSans-Bold-38" x="1619.970703"/>
      <use xlink:href="#DejaVuSans-Bold-20" x="1689.550781"/>
      <use xlink:href="#DejaVuSans-Bold-6d" x="1724.365234"/>
      <use xlink:href="#DejaVuSans-Bold-73" x="1828.564453"/>
     </g>
    </g>
   </g>
  </g>
 </g>
 <defs>
  <clipPath id="p3a352e2ab4">
   <rect x="73.66" y="18" width="849.38" height="352.4"/>
  </clipPath>
 </defs>
</svg>
